<?xml version="1.0" encoding="UTF-8" standalone="no"?>
<!-- Created with Inkscape (http://www.inkscape.org/) -->

<svg
   width="36"
   height="36"
   viewBox="0 0 9.5250002 9.525"
   version="1.1"
   id="svg1"
   inkscape:version="1.3.2 (091e20e, 2023-11-25)"
   sodipodi:docname="akyn-logo-web-blue.svg"
   inkscape:export-filename="akyn-logo-tg-blue.png"
   inkscape:export-xdpi="300"
   inkscape:export-ydpi="300"
   xmlns:inkscape="http://www.inkscape.org/namespaces/inkscape"
   xmlns:sodipodi="http://sodipodi.sourceforge.net/DTD/sodipodi-0.dtd"
   xmlns="http://www.w3.org/2000/svg"
   xmlns:svg="http://www.w3.org/2000/svg">
  <sodipodi:namedview
     id="namedview1"
     pagecolor="#ffffff"
     bordercolor="#000000"
     borderopacity="0.25"
     inkscape:showpageshadow="2"
     inkscape:pageopacity="0.0"
     inkscape:pagecheckerboard="0"
     inkscape:deskcolor="#d1d1d1"
     inkscape:document-units="mm"
     inkscape:zoom="1.5309059"
     inkscape:cx="6.8586839"
     inkscape:cy="97.981199"
     inkscape:window-width="1376"
     inkscape:window-height="607"
     inkscape:window-x="24"
     inkscape:window-y="76"
     inkscape:window-maximized="0"
     inkscape:current-layer="layer1" />
  <defs
     id="defs1" />
  <g
     inkscape:label="Layer 1"
     inkscape:groupmode="layer"
     id="layer1">
    <g
       id="g2"
       transform="matrix(0.07840068,0,0,0.07840068,-37.612823,-37.828714)"
       style="fill:#536dfe;fill-opacity:1;stroke:none">
      <path
         id="path238-1-3-1-9"
         style="fill:#536dfe;fill-opacity:1;stroke:none;stroke-width:0.714323"
         d="m 540.4978,482.50487 c -26.99801,0 -40.49779,26.99809 -40.49779,67.49511 v 26.99783 h 21.59868 c 0,-13.49899 -5.5e-4,-26.99783 13.4984,-26.99783 13.37817,0 13.49944,13.49884 13.49944,26.99783 h 32.39699 v -26.99783 c 0,-40.49702 -13.49771,-67.49511 -40.49572,-67.49511 z m -8.32869,23.47816 h 6.00015 l 0.81803,4.09122 c 0.90197,0.26942 1.76562,0.6251 2.57659,1.0666 l 3.76308,-2.50889 4.24263,4.24264 -2.53783,3.80752 c 0.41329,0.78169 0.7496,1.60948 1.00459,2.47375 l 4.13308,0.82682 v 6.00015 l -4.12222,0.82476 c -0.25894,0.88794 -0.60169,1.73835 -1.02733,2.53938 l 2.47168,3.70778 -4.24263,4.24264 -3.66748,-2.44533 c -0.81613,0.44587 -1.6851,0.80609 -2.59364,1.07745 l -0.81855,4.09226 h -6.00015 l -0.81081,-4.05299 c -0.94212,-0.26946 -1.84517,-0.62847 -2.68976,-1.08468 l -3.62045,2.41329 -4.24263,-4.24264 2.41225,-3.6189 c -0.45275,-0.83734 -0.81026,-1.73207 -1.07952,-2.66547 l -3.93981,-0.78755 v -6.00015 l 3.95066,-0.78962 c 0.27944,-0.95735 0.65685,-1.87106 1.12914,-2.72644 l -2.39469,-3.59203 4.24263,-4.24264 3.65249,2.435 c 0.81331,-0.42992 1.67739,-0.77385 2.57969,-1.03198 z" />
      <text
         xml:space="preserve"
         style="font-size:15.2389px;font-family:serif;-inkscape-font-specification:serif;text-align:end;text-anchor:end;fill:#536dfe;fill-opacity:1;stroke:none;stroke-width:0.714323"
         x="499.99979"
         y="603.99615"
         id="text921-2-0-9-3"><tspan
           sodipodi:role="line"
           id="tspan919-6-9-4-9"
           style="fill:#536dfe;fill-opacity:1;stroke:none;stroke-width:0.714323"
           x="503.80951"
           y="603.99615"> </tspan></text>
      <path
         style="fill:#536dfe;fill-opacity:1;stroke:none;stroke-width:0.714323"
         d="m 508.09924,579.69788 h -8.09943 v 24.29828 h 8.09943 v -24.29828"
         id="path1666-5-34-2-0" />
      <path
         style="fill:#536dfe;fill-opacity:1;stroke:none;stroke-width:0.714323"
         d="m 524.1406,579.69788 v 24.29828 h 8.09943 v -24.29828 z"
         id="path1668-35-07-4-5" />
      <path
         style="fill:#536dfe;fill-opacity:1;stroke:none;stroke-width:0.714323"
         d="m 556.85329,579.69788 v 24.29828 h 8.09943 v -24.29828 z"
         id="path1670-4-5-0-2" />
      <path
         style="fill:#536dfe;fill-opacity:1;stroke:none;stroke-width:0.714323"
         d="m 581.15157,579.69788 v 24.29828 h -8.09942 v -24.29828 z"
         id="path1672-3-7-2-2" />
      <path
         style="fill:#536dfe;fill-opacity:1;stroke:none;stroke-width:0.714323"
         d="m 564.95272,590.49711 8.09943,5.39962 v 2.69981 l -8.09943,-5.39961 z"
         id="path1674-6-5-9-7" />
      <path
         style="fill:#536dfe;fill-opacity:1;stroke:none;stroke-width:0.714323"
         d="m 532.24003,587.7973 c 10.79923,1e-5 10.95673,2.69981 10.95673,8.09943 0,5.39963 -2.69982,8.09943 -10.95673,8.09943 5.55711,0 5.55711,-8.09943 5.55711,-8.09943 0,0 0,-8.09942 -5.55711,-8.09942"
         id="path1676-5-0-7-3"
         sodipodi:nodetypes="ccccc" />
      <path
         style="fill:#536dfe;fill-opacity:1;stroke:none;stroke-width:0.714323"
         d="m 521.59829,579.69788 h -8.09943 c -2.69982,2.69981 -5.39962,13.49905 -5.39962,13.49905 0,0 5.39962,-10.79924 13.49905,-13.49905"
         id="path1680-9-6-9-7"
         sodipodi:nodetypes="cccc" />
      <path
         style="fill:#536dfe;fill-opacity:1;stroke:none;stroke-width:0.714323"
         d="m 521.59829,603.99616 h -8.09943 c 0,-7.88319 -5.39962,-13.49905 -5.39962,-13.49905 0,0 8.1685,2.83798 13.49905,13.49905"
         id="path1682-5-4-2-9"
         sodipodi:nodetypes="cccc" />
      <path
         style="fill:#536dfe;fill-opacity:1;stroke:none;stroke-width:0.714323"
         d="m 553.99598,603.99616 v -24.29828 h -8.09942 v 10.79923 13.49905 h 8.09942"
         id="path1713-4-78-2-0"
         sodipodi:nodetypes="cccccc" />
      <path
         id="path2-5-2"
         style="fill:#536dfe;fill-opacity:1;stroke:none;stroke-width:0.0797626;stroke-opacity:0.4"
         d="m 543.18403,523.00235 a 8,8 0 0 1 -8,8 8,8 0 0 1 -8,-8 8,8 0 0 1 8,-8 8,8 0 0 1 8,8 z" />
    </g>
  </g>
</svg>
